v -0.178433 0.485677 -0.034587
vn -1.000000 -1.000000 -1.000000
vt -170141183460469231731687303715884105728.000000 0.000000
v -0.059478 0.870486 -0.034587
vn -1.000000 -1.000000 -1.000000
vt -170141183460469231731687303715884105728.000000 0.000000
v -0.059478 0.485677 -0.034587
vn -1.000000 -1.000000 -1.000000
vt -170141183460469231731687303715884105728.000000 0.000000
v -0.178433 0.870486 -0.034587
vn -1.000000 -1.000000 -1.000000
vt -170141183460469231731687303715884105728.000000 0.000000
v 0.059478 0.870486 -0.034587
vn -1.000000 -1.000000 -1.000000
vt -170141183460469231731687303715884105728.000000 0.000000
v 0.059478 0.485677 -0.034587
vn -1.000000 -1.000000 -1.000000
vt -170141183460469231731687303715884105728.000000 0.000000
v 0.178433 0.870486 -0.034587
vn -1.000000 -1.000000 -1.000000
vt -170141183460469231731687303715884105728.000000 0.000000
v 0.178433 0.485677 -0.034587
vn -1.000000 -1.000000 -1.000000
vt -170141183460469231731687303715884105728.000000 0.000000
v 0.178433 1.255295 -0.034587
vn -1.000000 -1.000000 -1.000000
vt -170141183460469231731687303715884105728.000000 0.000000
v 0.059478 1.255295 -0.034587
vn -1.000000 -1.000000 -1.000000
vt -170141183460469231731687303715884105728.000000 0.000000
v 0.178433 1.640104 -0.034587
vn -1.000000 -1.000000 -1.000000
vt -nan 0.000000
v 0.059478 1.640104 -0.034587
vn -1.000000 -1.000000 -1.000000
vt -170146355474918162907645410264962039808.000000 0.000000
v -0.059478 1.255295 -0.034587
vn -1.000000 -1.000000 -1.000000
vt -170141183460469231731687303715884105728.000000 0.000000
v -0.059478 1.640104 -0.034587
vn -1.000000 -1.000000 -1.000000
vt -170141183460469231731687303715884105728.000000 0.000000
v -0.178433 1.255295 -0.034587
vn -1.000000 -1.000000 -1.000000
vt -170141183460469231731687303715884105728.000000 0.000000
v -0.178433 1.640104 -0.034587
vn -1.000000 -1.000000 -1.000000
vt -170146355474918162907645410264962039808.000000 0.000000
f 1/1/1 2/2/2 3/3/3
f 2/2/2 1/1/1 4/4/4
f 5/5/5 3/3/3 2/2/2
f 3/3/3 5/5/5 6/6/6
f 7/7/7 6/6/6 5/5/5
f 6/6/6 7/7/7 8/8/8
f 5/5/5 9/9/9 7/7/7
f 9/9/9 5/5/5 10/10/10
f 2/2/2 10/10/10 5/5/5
f 10/10/10 11/11/11 9/9/9
f 11/11/11 10/10/10 12/12/12
f 10/10/10 2/2/2 13/13/13
f 13/13/13 12/12/12 10/10/10
f 4/4/4 13/13/13 2/2/2
f 12/12/12 13/13/13 14/14/14
f 13/13/13 4/4/4 15/15/15
f 15/15/15 14/14/14 13/13/13
f 14/14/14 15/15/15 16/16/16
